<?xml version="1.0" standalone="no"?><!DOCTYPE svg PUBLIC "-//W3C//DTD SVG 1.1//EN" "http://www.w3.org/Graphics/SVG/1.1/DTD/svg11.dtd"><svg class="icon" width="200px" height="200.00px" viewBox="0 0 1024 1024" version="1.1" xmlns="http://www.w3.org/2000/svg"><path d="M864.711111 779.377778L707.697778 952.32H307.2V236.657778c0-20.48 17.066667-37.546667 37.546667-37.546667h516.551111l3.413333 580.266667z" fill="#F4C295" /><path d="M703.146667 972.8H245.76c-40.96 0-73.955556-32.995556-73.955556-73.955556V126.293333c0-40.96 32.995556-73.955556 73.955556-73.955555H807.822222c40.96 0 73.955556 32.995556 73.955556 73.955555v659.911111L703.146667 972.8zM245.76 86.471111c-22.755556 0-39.822222 17.066667-39.822222 39.822222V898.844444c0 22.755556 17.066667 39.822222 39.822222 39.822223h443.733333l158.151111-166.115556V126.293333c0-22.755556-17.066667-39.822222-39.822222-39.822222H245.76z" fill="#282828" /><path d="M733.866667 295.822222H318.577778c-9.102222 0-17.066667-7.964444-17.066667-17.066666S309.475556 261.688889 318.577778 261.688889h415.288889c9.102222 0 17.066667 7.964444 17.066666 17.066667s-7.964444 17.066667-17.066666 17.066666zM733.866667 443.733333H318.577778c-9.102222 0-17.066667-7.964444-17.066667-17.066666S309.475556 409.6 318.577778 409.6h415.288889c9.102222 0 17.066667 7.964444 17.066666 17.066667s-7.964444 17.066667-17.066666 17.066666zM733.866667 603.022222H318.577778c-9.102222 0-17.066667-7.964444-17.066667-17.066666S309.475556 568.888889 318.577778 568.888889h415.288889c9.102222 0 17.066667 7.964444 17.066666 17.066667s-7.964444 17.066667-17.066666 17.066666zM682.666667 915.911111c-9.102222 0-17.066667-7.964444-17.066667-17.066667V762.311111c0-9.102222 7.964444-17.066667 17.066667-17.066667h125.155555c9.102222 0 17.066667 7.964444 17.066667 17.066667s-7.964444 17.066667-17.066667 17.066667h-108.088889V898.844444c0 9.102222-7.964444 17.066667-17.066666 17.066667z" fill="#282828" /></svg>